<svg height="512" viewBox="0 0 512 512" width="512" xmlns="http://www.w3.org/2000/svg"><g><g fill="#17a2b8"><path d="m476 72h-128.08a112.029 112.029 0 0 1 -43.92 165.21v34.79h16v24h-128v-24h16v-34.79a112.029 112.029 0 0 1 -43.92-165.21h-128.08a19.994 19.994 0 0 0 -20 20v292h480v-292a19.994 19.994 0 0 0 -20-20zm-196 288h-48v-24h48z"/><path d="m208 424-16 40h128l-16-40z"/></g><g fill="#ffc107"><path d="m476 64h-124.06a119.88 119.88 0 0 0 -191.88 0h-124.06a28.031 28.031 0 0 0 -28 28v312a28.031 28.031 0 0 0 28 28h160.18l-9.6 24h-34.58a8 8 0 0 0 -8 8v24a8 8 0 0 0 8 8h208a8 8 0 0 0 8-8v-24a8 8 0 0 0 -8-8h-34.58l-9.6-24h160.18a28.031 28.031 0 0 0 28-28v-312a28.031 28.031 0 0 0 -28-28zm-220-32a104.009 104.009 0 0 1 44.57 197.98 8.011 8.011 0 0 0 -4.57 7.23v26.79h-8v-160a8 8 0 0 0 -16 0v160h-32v-160a8 8 0 0 0 -16 0v160h-8v-26.79a8.011 8.011 0 0 0 -4.57-7.23 104.009 104.009 0 0 1 44.57-197.98zm-36 296a12.01 12.01 0 0 1 -12-12v-12h96v12a12.01 12.01 0 0 1 -12 12zm52 16v8h-32v-8zm-72-56v-8h112v8zm152 184v8h-192v-8zm-148.18-16 9.6-24h85.16l9.6 24zm284.18-52a12.01 12.01 0 0 1 -12 12h-440a12.01 12.01 0 0 1 -12-12v-12h464zm0-28h-464v-284a12.01 12.01 0 0 1 12-12h113.9a119.97 119.97 0 0 0 50.1 162.15v21.85h-8a8 8 0 0 0 -8 8v24a8 8 0 0 0 8 8v12a28.031 28.031 0 0 0 28 28h4v16a8 8 0 0 0 8 8h48a8 8 0 0 0 8-8v-16h4a28.031 28.031 0 0 0 28-28v-12a8 8 0 0 0 8-8v-24a8 8 0 0 0 -8-8h-8v-21.85a119.95 119.95 0 0 0 50.1-162.15h113.9a12.01 12.01 0 0 1 12 12z"/><path d="m256 168a8 8 0 0 0 8-8v-32a8 8 0 0 0 -16 0v32a8 8 0 0 0 8 8z"/></g></g></svg>